<svg xmlns="http://www.w3.org/2000/svg" viewBox="0 0 1073 655">
<g fill="#1128F5" fill-rule="evenodd">
<path d="M 588 156 L 497 187 L 479 196 L 457 211 L 441 225 L 420 250 L 403 279 L 393 305 L 386 341 L 386 377 L 392 409 L 401 436 L 407 446 L 459 483 L 457 477 L 459 471 L 636 236 L 647 272 L 649 311 L 643 347 L 628 384 L 605 417 L 574 445 L 546 461 L 481 485 L 492 520 L 581 490 L 622 466 L 645 445 L 661 425 L 680 391 L 688 368 L 695 326 L 694 296 L 688 266 L 670 214 L 628 184 L 444 430 L 440 431 L 431 405 L 427 385 L 426 344 L 433 309 L 449 272 L 470 243 L 506 212 L 532 198 L 594 176 Z"/>
</g></svg>
